<svg xmlns="http://www.w3.org/2000/svg" width="260" height="162" viewBox="0 0 260 162">
    <defs>
        <clipPath id="clip-path">
            <path id="Rectangle_3075" fill="#fff" stroke="#707070" d="M0 0H260V162H0z"/>
        </clipPath>
        <style>
            .cls-3{fill:#7a97ba}.cls-4{fill:#0f65af}
        </style>
    </defs>
    <g id="Mask_Group_12" clip-path="url(#clip-path)">
        <g id="Group_4322" transform="translate(0 0)">
            <g id="Group_4319" transform="translate(0 114.51)">
                <g id="Group_4317">
                    <path id="Path_6109" d="M656.67 380.444V394.5h-11.029v-14.056h-8.216v36.91h8.216v-14.637h11.029v14.634h8.216v-36.91z" class="cls-3" transform="translate(-637.425 -380.441)"/>
                    <path id="Path_6110" d="M678.493 387.457h-16.939v6.777h14.418a1.157 1.157 0 0 1 1.153 1.153v1.366h-10.38a5.765 5.765 0 0 0-5.767 5.769v7.2a5.761 5.761 0 0 0 5.766 5.767h11.747a5.766 5.766 0 0 0 5.767-5.768v-16.5a5.769 5.769 0 0 0-5.764-5.768zm-3.563 21.321h-4.62a2.275 2.275 0 0 1-2.275-2.266v-2.428c0-.722.8-.743 1.02-.743h7.245a.832.832 0 0 1 .819.4v3.31a2.259 2.259 0 0 1-2.19 1.724z" class="cls-3" transform="translate(-631.206 -378.588)"/>
                    <path id="Path_6111" d="M693.347 387.457v7.5h-2.781a1.729 1.729 0 0 0-1.73 1.73V415.5h-7.5v-22.275a5.77 5.77 0 0 1 5.768-5.768z" class="cls-3" transform="translate(-625.83 -378.588)"/>
                    <path id="Path_6112" d="M719.859 387.457h-7.45c-2.37 0-3.19 2.163-3.437 2.163-.286 0-1-2.163-3.437-2.163h-7.688a6.34 6.34 0 0 0-6.347 6.343v21.7h7.205v-19.317a1.153 1.153 0 0 1 1.153-1.154h4.515a1.149 1.149 0 0 1 1.154 1.154V415.5h6.873v-19.317a1.153 1.153 0 0 1 1.153-1.154h4.516a1.149 1.149 0 0 1 1.153 1.154V415.5h6.978v-21.7a6.344 6.344 0 0 0-6.339-6.344z" class="cls-3" transform="translate(-623.146 -378.588)"/>
                    <path id="Path_6113" d="M738.52 387.457h-11.25a6.34 6.34 0 0 0-6.344 6.344v15.351a6.34 6.34 0 0 0 6.344 6.344h11.25a6.34 6.34 0 0 0 6.344-6.344V393.8a6.34 6.34 0 0 0-6.344-6.344zm-.934 19.719a1.159 1.159 0 0 1-1.154 1.155h-7.07a1.158 1.158 0 0 1-1.153-1.155v-11.389a1.153 1.153 0 0 1 1.153-1.153h7.07a1.153 1.153 0 0 1 1.154 1.153z" class="cls-3" transform="translate(-615.377 -378.588)"/>
                    <path id="Path_6114" d="M758.512 387.457h-10.594a6.339 6.339 0 0 0-6.343 6.344V415.5h7.387v-19.32a1.155 1.155 0 0 1 1.153-1.153h6.194a1.153 1.153 0 0 1 1.154 1.153v19.32h7.388v-21.7a6.34 6.34 0 0 0-6.339-6.344z" class="cls-3" transform="translate(-609.925 -378.588)"/>
                    <path id="Path_6115" d="M785.136 387.457h-7.386v19.32a1.158 1.158 0 0 1-1.154 1.153h-6.2a1.152 1.152 0 0 1-1.153-1.153v-19.32h-7.387v21.695a6.339 6.339 0 0 0 6.344 6.348h9.549v1.66a1.159 1.159 0 0 1-1.154 1.155h-14.1v7.565h16.3a6.339 6.339 0 0 0 6.344-6.343v-32.08z" class="cls-3" transform="translate(-604.57 -378.588)"/>
                </g>
                <g id="Group_4318" transform="translate(183.121 0.075)">
                    <path id="Path_6116" d="M822.2 387.457h-16.941v6.777h14.418a1.157 1.157 0 0 1 1.154 1.153v1.366h-10.382a5.765 5.765 0 0 0-5.765 5.768v7.205a5.761 5.761 0 0 0 5.765 5.767H822.2a5.766 5.766 0 0 0 5.767-5.768v-16.5a5.769 5.769 0 0 0-5.765-5.768zm-3.563 21.321h-4.62a2.275 2.275 0 0 1-2.275-2.266v-2.428c0-.722.8-.743 1.02-.743h7.248a.832.832 0 0 1 .82.4v3.31a2.259 2.259 0 0 1-2.193 1.724z" class="cls-4" transform="translate(-776.382 -378.663)"/>
                    <path id="Path_6117" d="M848.286 387.457H840.9v19.32a1.155 1.155 0 0 1-1.154 1.153h-6.194a1.152 1.152 0 0 1-1.153-1.153v-19.32h-7.389v21.695a6.34 6.34 0 0 0 6.344 6.344h9.546v1.66a1.157 1.157 0 0 1-1.154 1.155h-14.104v7.565h16.294a6.341 6.341 0 0 0 6.344-6.343v-32.076z" class="cls-4" transform="translate(-771.015 -378.663)"/>
                    <path id="Path_6118" d="M801.827 380.5h-19.533v36.833h7.856v-13.045h11.677a6.918 6.918 0 0 0 6.921-6.919v-9.949a6.918 6.918 0 0 0-6.922-6.919zm-1.442 14.41a1.157 1.157 0 0 1-1.153 1.154h-9.082v-7.348h9.082a1.157 1.157 0 0 1 1.153 1.154z" class="cls-4" transform="translate(-782.294 -380.5)"/>
                </g>
            </g>
            <g id="Group_4321" transform="translate(79.622 0)">
                <g id="Group_4320" transform="translate(0 0.176)">
                    <path id="Path_6119" d="M789.93 340.359c0 1.492-.068 2.967-.195 4.424 0 0-.345 3.168-.632 4.686q-.138.834-.329 1.643a76.634 76.634 0 0 0-9.665-3.177 79.382 79.382 0 0 0-19.517-2.512c-.144-.008-.278-.008-.422-.008-1.044 0-2.081.016-3.108.067 1.171-.235 2.342-.43 3.531-.614a101.012 101.012 0 0 1 15.169-1.138c.784 0 1.559.009 2.333.034.859.009 1.719.042 2.571.085.025-.3.051-.607.067-.91.059-.851.085-1.71.085-2.579 0-.193 0-.388-.009-.581a40.467 40.467 0 0 0-25.272-36.928v30.959c-1.8-.135-3.633-.195-5.477-.195-1.56 0-3.1.043-4.635.135v-43.7a50.216 50.216 0 0 1 10.112 2.064 48.134 48.134 0 0 1 5.056 1.9 50.554 50.554 0 0 1 30.337 46.349z" class="cls-4" transform="translate(-688.794 -289.974)"/>
                    <path id="Path_6120" d="M784.847 341.422a50.634 50.634 0 0 1-28.423 32.528v-11.308a40.556 40.556 0 0 0 18.776-24.279 77.335 77.335 0 0 1 9.648 3.059z" class="cls-3" transform="translate(-685.626 -277.217)"/>
                    <path id="Path_6121" d="M754.536 331.73v45.87a50.13 50.13 0 0 1-10.112 2.065v-46.216a95.216 95.216 0 0 1 10.112-1.719z" class="cls-4" transform="translate(-688.795 -278.969)"/>
                    <path id="Path_6122" d="M771.213 339.38c-1.669-.219-3.355-.388-5.056-.5-1.8-.135-3.633-.195-5.477-.195-1.56 0-3.1.043-4.635.135a78.147 78.147 0 0 0-9.269 1.078v-28.015a64.625 64.625 0 0 0-10.112 3.337v27.16c-1.711.54-3.4 1.13-5.056 1.787a79.253 79.253 0 0 0-18.54 10.322 39.534 39.534 0 0 1-1.273-4.078 40.446 40.446 0 0 1 34.981-50.267V289.99a50.1 50.1 0 0 0-10.112 1.887 49.167 49.167 0 0 0-5.056 1.787 50.62 50.62 0 0 0-28.087 64.162c.446 1.213.935 2.4 1.474 3.573a50.182 50.182 0 0 0 4.417 7.752q.986 1.43 2.073 2.781c.471.6.968 1.188 1.474 1.762.3.354.623.7.935 1.044a50.64 50.64 0 0 0 17.714 12.346v-11.2a40.392 40.392 0 0 1-10.358-8.1c-.3-.321-.6-.65-.876-.987-.573-.648-1.112-1.313-1.627-2-.556-.717-1.078-1.459-1.567-2.216a99.349 99.349 0 0 1 14.428-9.177c1.66-.877 3.345-1.7 5.056-2.477v37.947a50.182 50.182 0 0 0 10.113 1.887v-43.75a94.035 94.035 0 0 1 9.269-2.537 95.2 95.2 0 0 1 10.112-1.719q2.515-.3 5.056-.464 3.337-.228 6.741-.228 3.223 0 6.4.211a78.933 78.933 0 0 0-13.142-2.894z" class="cls-3" transform="translate(-700.415 -289.99)"/>
                </g>
            </g>
        </g>
    </g>
</svg>
